<svg width="54" height="52" viewBox="0 0 54 52" fill="none" xmlns="http://www.w3.org/2000/svg">
<path d="M19.4623 18.8231L24.868 25.1875L19.4623 31.5519C15.9685 34.9975 10.3431 34.9826 6.86773 31.5073C3.37742 28.017 3.37742 22.358 6.86773 18.8677C10.3431 15.3924 15.9685 15.3775 19.4623 18.8231ZM27 22.6773L21.8521 16.6164L21.8054 16.5696C17.0458 11.8101 9.32915 11.8101 4.56964 16.5696C-0.189879 21.3292 -0.189879 29.0458 4.56964 33.8054C9.32915 38.5649 17.0458 38.5649 21.8054 33.8054L21.8521 33.7586L27 27.6977L32.1479 33.7586L32.1946 33.8054C36.9541 38.5649 44.6708 38.5649 49.4304 33.8054C54.1899 29.0458 54.1899 21.3292 49.4304 16.5696C44.6708 11.8101 36.9541 11.8101 32.1946 16.5696L32.1479 16.6164L27 22.6773ZM29.132 25.1875L34.5377 18.8231C38.0315 15.3775 43.6569 15.3924 47.1323 18.8677C50.6226 22.358 50.6226 28.017 47.1323 31.5073C43.6569 34.9826 38.0315 34.9975 34.5377 31.5519L29.132 25.1875Z" fill="black" stroke="black" id="id_102"></path>
</svg>